M48
; DRILL file KiCad 10.0.5 date 2026-10-08T23:53:04
; FORMAT={-:-/ absolute / metric / decimal}
; #@! TF.CreationDate,2026-10-08T23:53:04+05:30
; #@! TF.GenerationSoftware,Kicad,Pcbnew,10.0.5
; #@! TF.FileFunction,MixedPlating,1,2
FMAT,2
METRIC
; #@! TA.AperFunction,Plated,PTH,ComponentDrill
T1C0.800
; #@! TA.AperFunction,Plated,PTH,ComponentDrill
T2C0.900
; #@! TA.AperFunction,Plated,PTH,ComponentDrill
T3C1.600
; #@! TA.AperFunction,NonPlated,NPTH,ComponentDrill
T4C3.200
%
G90
G05
T1
X144.48Y-92.385
X144.48Y-100.005
X144.48Y-110.085
X144.48Y-117.705
X147.02Y-92.385
X147.02Y-100.005
X147.02Y-110.085
X147.02Y-117.705
X149.56Y-92.385
X149.56Y-100.005
X149.56Y-110.085
X149.56Y-117.705
X152.1Y-92.385
X152.1Y-100.005
X152.1Y-110.085
X152.1Y-117.705
X154.64Y-92.385
X154.64Y-100.005
X154.64Y-110.085
X154.64Y-117.705
X157.18Y-92.385
X157.18Y-100.005
X157.18Y-110.085
X157.18Y-117.705
X159.72Y-92.385
X159.72Y-100.005
X159.72Y-110.085
X159.72Y-117.705
X164.12Y-114.0
X164.22Y-95.9
X174.28Y-114.0
X174.38Y-95.9
T2
X181.86Y-95.3
X182.06Y-113.9
X184.4Y-95.3
X184.6Y-113.9
T3
X120.9Y-86.8
X120.9Y-124.6
T4
X120.9Y-97.225
X120.9Y-114.175
M30
