%TF.GenerationSoftware,KiCad,Pcbnew,10.0.5*%
%TF.CreationDate,2026-10-08T23:53:01+05:30*%
%TF.ProjectId,Half Adder,48616c66-2041-4646-9465-722e6b696361,rev?*%
%TF.SameCoordinates,Original*%
%TF.FileFunction,Legend,Top*%
%TF.FilePolarity,Positive*%
%FSLAX46Y46*%
G04 Gerber Fmt 4.6, Leading zero omitted, Abs format (unit mm)*
G04 Created by KiCad (PCBNEW 10.0.5) date 2026-10-08 23:53:01*
%MOMM*%
%LPD*%
G01*
G04 APERTURE LIST*
%ADD10C,0.150000*%
%ADD11C,0.120000*%
G04 APERTURE END LIST*
D10*
X141604819Y-96956904D02*
X142414342Y-96956904D01*
X142414342Y-96956904D02*
X142509580Y-96909285D01*
X142509580Y-96909285D02*
X142557200Y-96861666D01*
X142557200Y-96861666D02*
X142604819Y-96766428D01*
X142604819Y-96766428D02*
X142604819Y-96575952D01*
X142604819Y-96575952D02*
X142557200Y-96480714D01*
X142557200Y-96480714D02*
X142509580Y-96433095D01*
X142509580Y-96433095D02*
X142414342Y-96385476D01*
X142414342Y-96385476D02*
X141604819Y-96385476D01*
X141604819Y-96004523D02*
X141604819Y-95385476D01*
X141604819Y-95385476D02*
X141985771Y-95718809D01*
X141985771Y-95718809D02*
X141985771Y-95575952D01*
X141985771Y-95575952D02*
X142033390Y-95480714D01*
X142033390Y-95480714D02*
X142081009Y-95433095D01*
X142081009Y-95433095D02*
X142176247Y-95385476D01*
X142176247Y-95385476D02*
X142414342Y-95385476D01*
X142414342Y-95385476D02*
X142509580Y-95433095D01*
X142509580Y-95433095D02*
X142557200Y-95480714D01*
X142557200Y-95480714D02*
X142604819Y-95575952D01*
X142604819Y-95575952D02*
X142604819Y-95861666D01*
X142604819Y-95861666D02*
X142557200Y-95956904D01*
X142557200Y-95956904D02*
X142509580Y-96004523D01*
X141604819Y-114656904D02*
X142414342Y-114656904D01*
X142414342Y-114656904D02*
X142509580Y-114609285D01*
X142509580Y-114609285D02*
X142557200Y-114561666D01*
X142557200Y-114561666D02*
X142604819Y-114466428D01*
X142604819Y-114466428D02*
X142604819Y-114275952D01*
X142604819Y-114275952D02*
X142557200Y-114180714D01*
X142557200Y-114180714D02*
X142509580Y-114133095D01*
X142509580Y-114133095D02*
X142414342Y-114085476D01*
X142414342Y-114085476D02*
X141604819Y-114085476D01*
X141938152Y-113180714D02*
X142604819Y-113180714D01*
X141557200Y-113418809D02*
X142271485Y-113656904D01*
X142271485Y-113656904D02*
X142271485Y-113037857D01*
X169033333Y-112084819D02*
X168700000Y-111608628D01*
X168461905Y-112084819D02*
X168461905Y-111084819D01*
X168461905Y-111084819D02*
X168842857Y-111084819D01*
X168842857Y-111084819D02*
X168938095Y-111132438D01*
X168938095Y-111132438D02*
X168985714Y-111180057D01*
X168985714Y-111180057D02*
X169033333Y-111275295D01*
X169033333Y-111275295D02*
X169033333Y-111418152D01*
X169033333Y-111418152D02*
X168985714Y-111513390D01*
X168985714Y-111513390D02*
X168938095Y-111561009D01*
X168938095Y-111561009D02*
X168842857Y-111608628D01*
X168842857Y-111608628D02*
X168461905Y-111608628D01*
X169985714Y-112084819D02*
X169414286Y-112084819D01*
X169700000Y-112084819D02*
X169700000Y-111084819D01*
X169700000Y-111084819D02*
X169604762Y-111227676D01*
X169604762Y-111227676D02*
X169509524Y-111322914D01*
X169509524Y-111322914D02*
X169414286Y-111370533D01*
X182591905Y-110394819D02*
X182591905Y-109394819D01*
X182591905Y-109394819D02*
X182830000Y-109394819D01*
X182830000Y-109394819D02*
X182972857Y-109442438D01*
X182972857Y-109442438D02*
X183068095Y-109537676D01*
X183068095Y-109537676D02*
X183115714Y-109632914D01*
X183115714Y-109632914D02*
X183163333Y-109823390D01*
X183163333Y-109823390D02*
X183163333Y-109966247D01*
X183163333Y-109966247D02*
X183115714Y-110156723D01*
X183115714Y-110156723D02*
X183068095Y-110251961D01*
X183068095Y-110251961D02*
X182972857Y-110347200D01*
X182972857Y-110347200D02*
X182830000Y-110394819D01*
X182830000Y-110394819D02*
X182591905Y-110394819D01*
X184115714Y-110394819D02*
X183544286Y-110394819D01*
X183830000Y-110394819D02*
X183830000Y-109394819D01*
X183830000Y-109394819D02*
X183734762Y-109537676D01*
X183734762Y-109537676D02*
X183639524Y-109632914D01*
X183639524Y-109632914D02*
X183544286Y-109680533D01*
X109631009Y-106485714D02*
X109678628Y-106342857D01*
X109678628Y-106342857D02*
X109726247Y-106295238D01*
X109726247Y-106295238D02*
X109821485Y-106247619D01*
X109821485Y-106247619D02*
X109964342Y-106247619D01*
X109964342Y-106247619D02*
X110059580Y-106295238D01*
X110059580Y-106295238D02*
X110107200Y-106342857D01*
X110107200Y-106342857D02*
X110154819Y-106438095D01*
X110154819Y-106438095D02*
X110154819Y-106819047D01*
X110154819Y-106819047D02*
X109154819Y-106819047D01*
X109154819Y-106819047D02*
X109154819Y-106485714D01*
X109154819Y-106485714D02*
X109202438Y-106390476D01*
X109202438Y-106390476D02*
X109250057Y-106342857D01*
X109250057Y-106342857D02*
X109345295Y-106295238D01*
X109345295Y-106295238D02*
X109440533Y-106295238D01*
X109440533Y-106295238D02*
X109535771Y-106342857D01*
X109535771Y-106342857D02*
X109583390Y-106390476D01*
X109583390Y-106390476D02*
X109631009Y-106485714D01*
X109631009Y-106485714D02*
X109631009Y-106819047D01*
X109154819Y-105961904D02*
X109154819Y-105390476D01*
X110154819Y-105676190D02*
X109154819Y-105676190D01*
X110154819Y-104533333D02*
X110154819Y-105104761D01*
X110154819Y-104819047D02*
X109154819Y-104819047D01*
X109154819Y-104819047D02*
X109297676Y-104914285D01*
X109297676Y-104914285D02*
X109392914Y-105009523D01*
X109392914Y-105009523D02*
X109440533Y-105104761D01*
X120937200Y-129742857D02*
X120937200Y-127457143D01*
X122080057Y-128600000D02*
X119794342Y-128600000D01*
X134716667Y-92307200D02*
X134859524Y-92354819D01*
X134859524Y-92354819D02*
X135097619Y-92354819D01*
X135097619Y-92354819D02*
X135192857Y-92307200D01*
X135192857Y-92307200D02*
X135240476Y-92259580D01*
X135240476Y-92259580D02*
X135288095Y-92164342D01*
X135288095Y-92164342D02*
X135288095Y-92069104D01*
X135288095Y-92069104D02*
X135240476Y-91973866D01*
X135240476Y-91973866D02*
X135192857Y-91926247D01*
X135192857Y-91926247D02*
X135097619Y-91878628D01*
X135097619Y-91878628D02*
X134907143Y-91831009D01*
X134907143Y-91831009D02*
X134811905Y-91783390D01*
X134811905Y-91783390D02*
X134764286Y-91735771D01*
X134764286Y-91735771D02*
X134716667Y-91640533D01*
X134716667Y-91640533D02*
X134716667Y-91545295D01*
X134716667Y-91545295D02*
X134764286Y-91450057D01*
X134764286Y-91450057D02*
X134811905Y-91402438D01*
X134811905Y-91402438D02*
X134907143Y-91354819D01*
X134907143Y-91354819D02*
X135145238Y-91354819D01*
X135145238Y-91354819D02*
X135288095Y-91402438D01*
X135621429Y-91354819D02*
X135859524Y-92354819D01*
X135859524Y-92354819D02*
X136050000Y-91640533D01*
X136050000Y-91640533D02*
X136240476Y-92354819D01*
X136240476Y-92354819D02*
X136478572Y-91354819D01*
X137383333Y-92354819D02*
X136811905Y-92354819D01*
X137097619Y-92354819D02*
X137097619Y-91354819D01*
X137097619Y-91354819D02*
X137002381Y-91497676D01*
X137002381Y-91497676D02*
X136907143Y-91592914D01*
X136907143Y-91592914D02*
X136811905Y-91640533D01*
X134916667Y-112857200D02*
X135059524Y-112904819D01*
X135059524Y-112904819D02*
X135297619Y-112904819D01*
X135297619Y-112904819D02*
X135392857Y-112857200D01*
X135392857Y-112857200D02*
X135440476Y-112809580D01*
X135440476Y-112809580D02*
X135488095Y-112714342D01*
X135488095Y-112714342D02*
X135488095Y-112619104D01*
X135488095Y-112619104D02*
X135440476Y-112523866D01*
X135440476Y-112523866D02*
X135392857Y-112476247D01*
X135392857Y-112476247D02*
X135297619Y-112428628D01*
X135297619Y-112428628D02*
X135107143Y-112381009D01*
X135107143Y-112381009D02*
X135011905Y-112333390D01*
X135011905Y-112333390D02*
X134964286Y-112285771D01*
X134964286Y-112285771D02*
X134916667Y-112190533D01*
X134916667Y-112190533D02*
X134916667Y-112095295D01*
X134916667Y-112095295D02*
X134964286Y-112000057D01*
X134964286Y-112000057D02*
X135011905Y-111952438D01*
X135011905Y-111952438D02*
X135107143Y-111904819D01*
X135107143Y-111904819D02*
X135345238Y-111904819D01*
X135345238Y-111904819D02*
X135488095Y-111952438D01*
X135821429Y-111904819D02*
X136059524Y-112904819D01*
X136059524Y-112904819D02*
X136250000Y-112190533D01*
X136250000Y-112190533D02*
X136440476Y-112904819D01*
X136440476Y-112904819D02*
X136678572Y-111904819D01*
X137011905Y-112000057D02*
X137059524Y-111952438D01*
X137059524Y-111952438D02*
X137154762Y-111904819D01*
X137154762Y-111904819D02*
X137392857Y-111904819D01*
X137392857Y-111904819D02*
X137488095Y-111952438D01*
X137488095Y-111952438D02*
X137535714Y-112000057D01*
X137535714Y-112000057D02*
X137583333Y-112095295D01*
X137583333Y-112095295D02*
X137583333Y-112190533D01*
X137583333Y-112190533D02*
X137535714Y-112333390D01*
X137535714Y-112333390D02*
X136964286Y-112904819D01*
X136964286Y-112904819D02*
X137583333Y-112904819D01*
X182391905Y-91794819D02*
X182391905Y-90794819D01*
X182391905Y-90794819D02*
X182630000Y-90794819D01*
X182630000Y-90794819D02*
X182772857Y-90842438D01*
X182772857Y-90842438D02*
X182868095Y-90937676D01*
X182868095Y-90937676D02*
X182915714Y-91032914D01*
X182915714Y-91032914D02*
X182963333Y-91223390D01*
X182963333Y-91223390D02*
X182963333Y-91366247D01*
X182963333Y-91366247D02*
X182915714Y-91556723D01*
X182915714Y-91556723D02*
X182868095Y-91651961D01*
X182868095Y-91651961D02*
X182772857Y-91747200D01*
X182772857Y-91747200D02*
X182630000Y-91794819D01*
X182630000Y-91794819D02*
X182391905Y-91794819D01*
X183344286Y-90890057D02*
X183391905Y-90842438D01*
X183391905Y-90842438D02*
X183487143Y-90794819D01*
X183487143Y-90794819D02*
X183725238Y-90794819D01*
X183725238Y-90794819D02*
X183820476Y-90842438D01*
X183820476Y-90842438D02*
X183868095Y-90890057D01*
X183868095Y-90890057D02*
X183915714Y-90985295D01*
X183915714Y-90985295D02*
X183915714Y-91080533D01*
X183915714Y-91080533D02*
X183868095Y-91223390D01*
X183868095Y-91223390D02*
X183296667Y-91794819D01*
X183296667Y-91794819D02*
X183915714Y-91794819D01*
X169133333Y-93984819D02*
X168800000Y-93508628D01*
X168561905Y-93984819D02*
X168561905Y-92984819D01*
X168561905Y-92984819D02*
X168942857Y-92984819D01*
X168942857Y-92984819D02*
X169038095Y-93032438D01*
X169038095Y-93032438D02*
X169085714Y-93080057D01*
X169085714Y-93080057D02*
X169133333Y-93175295D01*
X169133333Y-93175295D02*
X169133333Y-93318152D01*
X169133333Y-93318152D02*
X169085714Y-93413390D01*
X169085714Y-93413390D02*
X169038095Y-93461009D01*
X169038095Y-93461009D02*
X168942857Y-93508628D01*
X168942857Y-93508628D02*
X168561905Y-93508628D01*
X169514286Y-93080057D02*
X169561905Y-93032438D01*
X169561905Y-93032438D02*
X169657143Y-92984819D01*
X169657143Y-92984819D02*
X169895238Y-92984819D01*
X169895238Y-92984819D02*
X169990476Y-93032438D01*
X169990476Y-93032438D02*
X170038095Y-93080057D01*
X170038095Y-93080057D02*
X170085714Y-93175295D01*
X170085714Y-93175295D02*
X170085714Y-93270533D01*
X170085714Y-93270533D02*
X170038095Y-93413390D01*
X170038095Y-93413390D02*
X169466667Y-93984819D01*
X169466667Y-93984819D02*
X170085714Y-93984819D01*
%TO.C,U3*%
D11*
X143150000Y-93545000D02*
X143150000Y-95195000D01*
X143150000Y-97195000D02*
X143150000Y-98845000D01*
X143150000Y-98845000D02*
X161050000Y-98845000D01*
X161050000Y-93545000D02*
X143150000Y-93545000D01*
X161050000Y-98845000D02*
X161050000Y-93545000D01*
X143150000Y-95195000D02*
G75*
G02*
X143150000Y-97195000I0J-1000000D01*
G01*
%TO.C,U4*%
X143150000Y-111245000D02*
X143150000Y-112895000D01*
X143150000Y-114895000D02*
X143150000Y-116545000D01*
X143150000Y-116545000D02*
X161050000Y-116545000D01*
X161050000Y-111245000D02*
X143150000Y-111245000D01*
X161050000Y-116545000D02*
X161050000Y-111245000D01*
X143150000Y-112895000D02*
G75*
G02*
X143150000Y-114895000I0J-1000000D01*
G01*
%TO.C,R1*%
X165160000Y-114000000D02*
X165930000Y-114000000D01*
X173240000Y-114000000D02*
X172470000Y-114000000D01*
X165930000Y-112630000D02*
X172470000Y-112630000D01*
X172470000Y-115370000D01*
X165930000Y-115370000D01*
X165930000Y-112630000D01*
%TO.C,D1*%
X180770000Y-112355000D02*
X180770000Y-115445000D01*
X180770000Y-112355170D02*
G75*
G02*
X186320000Y-113900000I2560000J-1544830D01*
G01*
X186320000Y-113900000D02*
G75*
G02*
X180770000Y-115444830I-2990000J0D01*
G01*
X185830000Y-113900000D02*
G75*
G02*
X180830000Y-113900000I-2500000J0D01*
G01*
X180830000Y-113900000D02*
G75*
G02*
X185830000Y-113900000I2500000J0D01*
G01*
%TO.C,BT1*%
X110540000Y-84690000D02*
X131260000Y-84690000D01*
X110540000Y-126710000D02*
X110540000Y-84690000D01*
X131260000Y-84690000D02*
X131260000Y-126710000D01*
X131260000Y-126710000D02*
X110540000Y-126710000D01*
%TO.C,SW1*%
X134690000Y-92790000D02*
X137410000Y-92790000D01*
X134690000Y-93050000D02*
X134150000Y-93050000D01*
X134690000Y-93050000D02*
X134690000Y-92800000D01*
X134690000Y-94620000D02*
X134690000Y-96580000D01*
X134690000Y-98410000D02*
X134690000Y-98150000D01*
X137400000Y-98410000D02*
X134700000Y-98410000D01*
X137410000Y-92790000D02*
X137410000Y-94800000D01*
X137410000Y-96400000D02*
X137410000Y-98410000D01*
%TO.C,SW2*%
X134890000Y-113340000D02*
X137610000Y-113340000D01*
X134890000Y-113600000D02*
X134350000Y-113600000D01*
X134890000Y-113600000D02*
X134890000Y-113350000D01*
X134890000Y-115170000D02*
X134890000Y-117130000D01*
X134890000Y-118960000D02*
X134890000Y-118700000D01*
X137600000Y-118960000D02*
X134900000Y-118960000D01*
X137610000Y-113340000D02*
X137610000Y-115350000D01*
X137610000Y-116950000D02*
X137610000Y-118960000D01*
%TO.C,D2*%
X180570000Y-93755000D02*
X180570000Y-96845000D01*
X180570000Y-93755170D02*
G75*
G02*
X186120000Y-95300000I2560000J-1544830D01*
G01*
X186120000Y-95300000D02*
G75*
G02*
X180570000Y-96844830I-2990000J0D01*
G01*
X185630000Y-95300000D02*
G75*
G02*
X180630000Y-95300000I-2500000J0D01*
G01*
X180630000Y-95300000D02*
G75*
G02*
X185630000Y-95300000I2500000J0D01*
G01*
%TO.C,R2*%
X165260000Y-95900000D02*
X166030000Y-95900000D01*
X173340000Y-95900000D02*
X172570000Y-95900000D01*
X166030000Y-94530000D02*
X172570000Y-94530000D01*
X172570000Y-97270000D01*
X166030000Y-97270000D01*
X166030000Y-94530000D01*
%TD*%
M02*
