%TF.GenerationSoftware,KiCad,Pcbnew,10.0.5*%
%TF.CreationDate,2026-10-08T23:53:01+05:30*%
%TF.ProjectId,Half Adder,48616c66-2041-4646-9465-722e6b696361,rev?*%
%TF.SameCoordinates,Original*%
%TF.FileFunction,Soldermask,Top*%
%TF.FilePolarity,Negative*%
%FSLAX46Y46*%
G04 Gerber Fmt 4.6, Leading zero omitted, Abs format (unit mm)*
G04 Created by KiCad (PCBNEW 10.0.5) date 2026-10-08 23:53:01*
%MOMM*%
%LPD*%
G01*
G04 APERTURE LIST*
G04 Aperture macros list*
%AMRoundRect*
0 Rectangle with rounded corners*
0 $1 Rounding radius*
0 $2 $3 $4 $5 $6 $7 $8 $9 X,Y pos of 4 corners*
0 Add a 4 corners polygon primitive as box body*
4,1,4,$2,$3,$4,$5,$6,$7,$8,$9,$2,$3,0*
0 Add four circle primitives for the rounded corners*
1,1,$1+$1,$2,$3*
1,1,$1+$1,$4,$5*
1,1,$1+$1,$6,$7*
1,1,$1+$1,$8,$9*
0 Add four rect primitives between the rounded corners*
20,1,$1+$1,$2,$3,$4,$5,0*
20,1,$1+$1,$4,$5,$6,$7,0*
20,1,$1+$1,$6,$7,$8,$9,0*
20,1,$1+$1,$8,$9,$2,$3,0*%
G04 Aperture macros list end*
%ADD10RoundRect,0.250000X0.550000X-0.550000X0.550000X0.550000X-0.550000X0.550000X-0.550000X-0.550000X0*%
%ADD11C,1.600000*%
%ADD12R,1.800000X1.800000*%
%ADD13C,1.800000*%
%ADD14C,3.200000*%
%ADD15RoundRect,0.249999X1.250001X-1.250001X1.250001X1.250001X-1.250001X1.250001X-1.250001X-1.250001X0*%
%ADD16C,3.000000*%
%ADD17RoundRect,0.250000X-0.550000X0.250000X-0.550000X-0.250000X0.550000X-0.250000X0.550000X0.250000X0*%
G04 APERTURE END LIST*
D10*
%TO.C,U3*%
X144480000Y-100005000D03*
D11*
X147020000Y-100005000D03*
X149560000Y-100005000D03*
X152100000Y-100005000D03*
X154640000Y-100005000D03*
X157180000Y-100005000D03*
X159720000Y-100005000D03*
X159720000Y-92385000D03*
X157180000Y-92385000D03*
X154640000Y-92385000D03*
X152100000Y-92385000D03*
X149560000Y-92385000D03*
X147020000Y-92385000D03*
X144480000Y-92385000D03*
%TD*%
D10*
%TO.C,U4*%
X144480000Y-117705000D03*
D11*
X147020000Y-117705000D03*
X149560000Y-117705000D03*
X152100000Y-117705000D03*
X154640000Y-117705000D03*
X157180000Y-117705000D03*
X159720000Y-117705000D03*
X159720000Y-110085000D03*
X157180000Y-110085000D03*
X154640000Y-110085000D03*
X152100000Y-110085000D03*
X149560000Y-110085000D03*
X147020000Y-110085000D03*
X144480000Y-110085000D03*
%TD*%
%TO.C,R1*%
X164120000Y-114000000D03*
X174280000Y-114000000D03*
%TD*%
D12*
%TO.C,D1*%
X182060000Y-113900000D03*
D13*
X184600000Y-113900000D03*
%TD*%
D14*
%TO.C,BT1*%
X120900000Y-114175000D03*
X120900000Y-97225000D03*
D15*
X120900000Y-124600000D03*
D16*
X120900000Y-86800000D03*
%TD*%
D17*
%TO.C,SW1*%
X134900000Y-93850000D03*
X137200000Y-95600000D03*
X134900000Y-97350000D03*
%TD*%
%TO.C,SW2*%
X135100000Y-114400000D03*
X137400000Y-116150000D03*
X135100000Y-117900000D03*
%TD*%
D12*
%TO.C,D2*%
X181860000Y-95300000D03*
D13*
X184400000Y-95300000D03*
%TD*%
D11*
%TO.C,R2*%
X164220000Y-95900000D03*
X174380000Y-95900000D03*
%TD*%
M02*
